<svg width="48" height="49" viewBox="0 0 48 49" fill="none" xmlns="http://www.w3.org/2000/svg">
<path d="M0 24.5312C0 11.2764 10.7452 0.53125 24 0.53125C37.2548 0.53125 48 11.2764 48 24.5312C48 37.7861 37.2548 48.5312 24 48.5312C10.7452 48.5312 0 37.7861 0 24.5312Z" fill="#3A5F56" fill-opacity="0.1"/>
<path d="M17.08 23.7431C18.4 23.7431 19.68 24.2948 20.6 25.2012C21.04 25.6347 21.4 26.147 21.64 26.6987C22.24 26.2652 23 25.9894 23.84 25.9894C24.8 25.9894 25.64 26.3046 26.28 26.8564C27.04 25.0042 28.88 23.7431 30.96 23.7431C32.32 23.7431 33.56 24.2554 34.52 25.2012C35.48 26.147 36 27.3687 36 28.7086V30.5214C36 31.6248 35.08 32.5312 33.96 32.5312H14.04C12.92 32.5312 12 31.6248 12 30.5214V28.8662C12 27.4869 12.56 26.147 13.56 25.1618C14.52 24.2554 15.76 23.7037 17.08 23.7431ZM23.84 26.7381C22.2 26.7381 20.88 28.0386 20.88 29.6544V31.7431H26.8V29.6544C26.8 28.078 25.48 26.7381 23.84 26.7381ZM17.12 24.4918H17.08C16 24.4918 14.96 24.9253 14.16 25.7135C13.28 26.5805 12.8 27.7234 12.8 28.8662V30.5214C12.8 31.1913 13.36 31.7431 14.04 31.7431V31.7037H20.12V29.615C20.12 28.7086 20.48 27.8416 21.04 27.2111C20.84 26.6593 20.52 26.147 20.08 25.7135C19.28 24.9253 18.24 24.4918 17.12 24.4918ZM30.92 24.5312C29.04 24.5312 27.4 25.7135 26.88 27.4869C27.32 28.078 27.6 28.8268 27.6 29.6544V31.7431H33.96C34.64 31.7431 35.2 31.1913 35.2 30.5214H35.16V28.7086C35.16 27.6051 34.72 26.5411 33.92 25.7529C33.12 24.9647 32.04 24.5312 30.92 24.5312ZM23.88 20.5115C25.04 20.5115 25.96 21.4179 25.96 22.5608C25.96 23.7037 25.04 24.6101 23.88 24.6101C22.72 24.6101 21.8 23.7037 21.8 22.5608C21.8 21.4179 22.72 20.5115 23.88 20.5115ZM23.88 21.3391C23.16 21.3391 22.6 21.8909 22.6 22.6002C22.6 23.3096 23.16 23.8613 23.88 23.8613C24.6 23.8613 25.16 23.3096 25.16 22.6002C25.16 21.8909 24.6 21.3391 23.88 21.3391ZM17.04 16.5312C18.6 16.5312 19.88 17.7923 19.88 19.3293C19.88 20.8662 18.6 22.1273 17.04 22.1273C15.48 22.1273 14.2 20.8662 14.2 19.3293C14.2 17.7923 15.48 16.5312 17.04 16.5312ZM30.96 16.5312C32.52 16.5312 33.8 17.7923 33.8 19.3293C33.8 20.8662 32.52 22.1273 30.96 22.1273C29.4 22.1273 28.12 20.8662 28.12 19.3293C28.12 17.7923 29.4 16.5312 30.96 16.5312ZM17.04 17.3194C15.92 17.3194 15 18.2258 15 19.3293C15 20.4327 15.92 21.3391 17.04 21.3391C18.16 21.3391 19.08 20.4327 19.08 19.3293C19.08 18.2258 18.16 17.3194 17.04 17.3194ZM30.96 17.3194C29.84 17.3194 28.92 18.2258 28.92 19.3293C28.92 20.4327 29.84 21.3391 30.96 21.3391C32.08 21.3391 33 20.4327 33 19.3293C33 18.2258 32.08 17.3194 30.96 17.3194Z" fill="#3A5F56"/>
</svg>
