<svg width="48" height="49" viewBox="0 0 48 49" fill="none" xmlns="http://www.w3.org/2000/svg">
<path d="M0 24.5312C0 11.2764 10.7452 0.53125 24 0.53125C37.2548 0.53125 48 11.2764 48 24.5312C48 37.7861 37.2548 48.5312 24 48.5312C10.7452 48.5312 0 37.7861 0 24.5312Z" fill="#3A5F56" fill-opacity="0.1"/>
<g clip-path="url(#clip0_2_116)">
<path d="M23.636 12.5312C24.2359 12.5312 24.7557 13.0113 24.7557 13.6513V15.9313C24.7557 16.6512 24.5158 17.3713 24.1159 17.9713C24.5158 18.5712 24.7557 19.2913 24.7557 20.0113V21.6112C24.7557 22.2113 24.2758 22.7312 23.636 22.7312C21.9965 22.7312 20.557 21.6112 20.1171 20.0512C19.6772 20.2112 19.2773 20.5312 18.8775 20.9712C18.5975 21.3312 18.5176 21.8513 18.7575 22.2913C18.9974 22.7312 19.3973 23.0112 19.9171 23.0112C20.1571 23.0112 20.317 23.1713 20.317 23.4113C20.317 23.6512 20.1571 23.8112 19.9171 23.8112C19.1174 23.8112 18.3976 23.3713 18.0377 22.6512C17.6778 21.9312 17.7978 21.0913 18.2776 20.4513C18.9574 19.7312 19.5972 19.2912 20.357 19.1312C20.477 19.0912 20.5969 19.0912 20.6769 19.1712C20.7569 19.2512 20.8369 19.3313 20.8369 19.4513C21.0368 20.8913 22.2365 21.9312 23.676 21.9312C23.836 21.9312 23.9959 21.7712 23.9959 21.6112V20.0113C23.9959 19.3713 23.756 18.7312 23.3561 18.2512C23.2362 18.0912 23.2362 17.8912 23.3561 17.7312C23.756 17.2512 23.9959 16.6112 23.9959 15.9713V13.6513C23.9959 13.4913 23.836 13.3313 23.676 13.3313C22.0765 13.3313 20.7969 14.6513 20.7969 16.2113C20.7969 16.5712 20.397 16.6112 20.2371 16.6112C18.2377 16.7712 16.5182 17.5312 15.1186 18.9313C13.0792 20.9312 12.3194 23.8112 13.0392 26.5312C13.759 29.3312 15.8784 31.4513 18.6375 32.1712C18.7575 32.2113 18.8775 32.2912 18.9174 32.4112C18.9574 32.5312 18.9574 32.6512 18.8775 32.7712C18.0777 33.9312 17.3179 34.4912 16.6381 35.0112L16.5182 35.1313C16.3182 35.2513 16.3582 35.4112 16.3982 35.4912C16.4382 35.5712 16.5182 35.7313 16.7181 35.7313C19.3573 35.7313 21.8366 34.5713 23.5161 32.5713C23.596 32.4513 23.716 32.4112 23.836 32.4112L25.7154 32.4513C30.474 32.4513 34.5528 28.9313 35.1926 24.1713C35.1926 24.0513 35.1526 23.9712 35.1126 23.9312C35.0726 23.8912 34.9926 23.8112 34.8727 23.8112H26.2752C26.0353 23.8112 25.8754 23.6512 25.8754 23.4113C25.8754 23.1713 26.0353 23.0112 26.2752 23.0112H34.8727C35.1926 23.0112 35.5125 23.1713 35.7124 23.4113C35.9124 23.6912 36.0323 24.0113 35.9923 24.2913C35.3125 29.4113 30.9139 33.2512 25.7554 33.2512H24.0359C22.1965 35.3312 19.5573 36.5312 16.7581 36.5312C16.2382 36.5312 15.8384 36.2512 15.6784 35.7712C15.5185 35.3312 15.6784 34.8113 16.0783 34.5312L16.2382 34.4112C16.7981 33.9712 17.3579 33.5713 17.9577 32.8113C15.1586 31.8513 13.0792 29.6512 12.3194 26.7712C11.4797 23.7312 12.3194 20.5712 14.5588 18.3313C16.0383 16.8513 17.8778 16.0113 19.9971 15.8112C20.1571 13.9712 21.7566 12.5312 23.636 12.5312ZM31.3537 25.2913C31.9136 25.2913 32.3934 25.7712 32.3934 26.3313C32.3934 26.8913 31.9136 27.3313 31.3537 27.3713C30.7939 27.3713 30.314 26.8913 30.314 26.3313C30.314 25.7712 30.7939 25.2913 31.3537 25.2913Z" fill="#3A5F56"/>
</g>
<defs>
<clipPath id="clip0_2_116">
<rect width="24" height="24" fill="white" transform="translate(12 12.5312)"/>
</clipPath>
</defs>
</svg>
