<svg width="48" height="49" viewBox="0 0 48 49" fill="none" xmlns="http://www.w3.org/2000/svg">
<path d="M0 24.5312C0 11.2764 10.7452 0.53125 24 0.53125C37.2548 0.53125 48 11.2764 48 24.5312C48 37.7861 37.2548 48.5312 24 48.5312C10.7452 48.5312 0 37.7861 0 24.5312Z" fill="#3A5F56" fill-opacity="0.1"/>
<g clip-path="url(#clip0_2_144)">
<path d="M31.8776 27.5712L27.9198 20.7312C27.9198 20.6912 27.9198 20.6912 27.9198 20.6512C27.9198 20.6112 27.9606 20.6112 28.0014 20.6112H28.7358C29.0623 20.6112 29.3887 20.4113 29.5519 20.1312C29.7151 19.8512 29.6743 19.4913 29.4703 19.2112L24.6557 12.8913C24.4924 12.6513 24.2476 12.5312 23.9212 12.5312C23.5948 12.5312 23.35 12.6513 23.1868 12.8913L18.4538 19.2112C18.2498 19.4913 18.209 19.8512 18.3722 20.1312C18.5354 20.4113 18.821 20.6112 19.1882 20.6112H20.3715C20.4123 20.6112 20.4123 20.6112 20.4531 20.6512C20.4531 20.6912 20.4531 20.6912 20.4531 20.7312L16.1281 27.5312C15.9648 27.8112 15.9648 28.1313 16.0873 28.4113C16.2505 28.6912 16.5361 28.8512 16.8625 28.8512H23.554V36.1313C23.554 36.3713 23.7172 36.5312 23.962 36.5312C24.2068 36.5312 24.37 36.3713 24.37 36.1313V28.8913H31.1024C31.4288 28.8913 31.7144 28.7313 31.8776 28.4513C32.0408 28.1713 32.0408 27.8512 31.8776 27.5712ZM31.1432 28.0513C31.1432 28.0913 31.1024 28.0913 31.0616 28.0913H16.8217C16.7809 28.0913 16.7809 28.0913 16.7401 28.0513C16.7401 28.0113 16.7401 28.0112 16.7401 27.9712L21.0651 21.1713C21.2283 20.8913 21.2283 20.5712 21.1059 20.2913C20.9427 20.0113 20.6571 19.8513 20.3307 19.8513H19.1474C19.1066 19.8513 19.1066 19.8513 19.0658 19.8113C19.0658 19.7713 19.0658 19.7712 19.0658 19.7312L23.8804 13.3712C23.8804 13.3312 23.9212 13.3313 23.9212 13.3313C23.9212 13.3313 23.962 13.3312 24.0028 13.3712L28.7766 19.6912C28.7766 19.7312 28.8175 19.7312 28.7766 19.7712C28.7766 19.8112 28.7358 19.8113 28.695 19.8113H27.9606C27.6342 19.8113 27.3486 19.9712 27.1854 20.2512C27.0222 20.5312 27.0222 20.8513 27.1854 21.1313L31.1432 27.9712C31.184 27.9712 31.184 28.0113 31.1432 28.0513Z" fill="#3A5F56"/>
</g>
<defs>
<clipPath id="clip0_2_144">
<rect width="24" height="24" fill="white" transform="translate(12 12.5312)"/>
</clipPath>
</defs>
</svg>
