<svg width="48" height="49" viewBox="0 0 48 49" fill="none" xmlns="http://www.w3.org/2000/svg">
<path d="M0 24.5312C0 11.2764 10.7452 0.53125 24 0.53125C37.2548 0.53125 48 11.2764 48 24.5312C48 37.7861 37.2548 48.5312 24 48.5312C10.7452 48.5312 0 37.7861 0 24.5312Z" fill="#3A5F56" fill-opacity="0.1"/>
<path d="M24 14.0312C30.08 14.0312 35.24 17.5312 36 22.1324V22.329C36 22.3683 35.96 22.3683 35.96 22.4077C35.92 22.4077 35.92 22.447 35.92 22.4863C35.92 22.4863 35.92 22.5256 35.88 22.5256C35.84 22.5256 35.84 22.565 35.8 22.565C35.76 22.6043 35.76 22.6043 35.72 22.6043H32.96V34.2447H33.76C34 34.2447 34.16 34.402 34.16 34.638C34.16 34.8739 34 35.0312 33.76 35.0312H26.96C26.72 35.0312 26.56 34.8739 26.56 34.638C26.56 34.402 26.72 34.2447 26.96 34.2447H27.92V22.6043H20.2V34.2054H21.08C21.32 34.2054 21.48 34.3627 21.48 34.5987C21.48 34.8346 21.32 34.9919 21.08 34.9919H14.28C14.04 34.9919 13.88 34.8346 13.88 34.5987C13.88 34.3627 14.04 34.2054 14.28 34.2054H15.16V22.565H12.2C12.16 22.565 12.12 22.5256 12.12 22.5256L12.1096 22.5154L12.08 22.4863C12.08 22.447 12.04 22.447 12.04 22.4077C12 22.3683 12 22.3683 12 22.329V22.1324C12.76 17.5312 17.92 14.0312 24 14.0312ZM19.4 22.6043H16V34.2447H19.4V22.6043ZM32.12 22.6043H28.72V34.2447H32.12V22.6043ZM24 14.8178C18.52 14.8178 13.84 17.8065 12.88 21.8178H35.12C34.16 17.8065 29.48 14.8178 24 14.8178ZM26.32 18.6324C26.56 18.6324 26.72 18.7897 26.72 19.0256C26.72 19.2616 26.56 19.4189 26.32 19.4189H21.72C21.48 19.4189 21.32 19.2616 21.32 19.0256C21.32 18.7897 21.48 18.6324 21.72 18.6324H26.32Z" fill="#3A5F56"/>
</svg>
